<svg id="Layer_2" data-name="Layer 2" xmlns="http://www.w3.org/2000/svg" viewBox="0 0 430.94 130.04"><defs><style>.cls-1{fill:#fff;}.cls-2{fill:#74c044;}.cls-3{fill:none;stroke:#fff;stroke-miterlimit:10;stroke-width:1.88px;}</style></defs><path class="cls-1" d="M345.81,166.93a3.67,3.67,0,0,1,1.32-.78,4.4,4.4,0,0,1,1.5-.27,4.17,4.17,0,0,1,1.35.2,2.64,2.64,0,0,1,.92.52,2.06,2.06,0,0,1,.53.76,2.27,2.27,0,0,1,.17.89v3.63c0,.25,0,.48,0,.69s0,.41,0,.6h-1.2c0-.36,0-.72,0-1.08h0a2.61,2.61,0,0,1-1.07,1,3.66,3.66,0,0,1-2.37.15,2.23,2.23,0,0,1-.78-.41,1.92,1.92,0,0,1-.54-.66,2.12,2.12,0,0,1-.19-.93,2,2,0,0,1,.31-1.15,2.21,2.21,0,0,1,.84-.76,4.3,4.3,0,0,1,1.24-.42,9.16,9.16,0,0,1,1.52-.13h1v-.3a1.47,1.47,0,0,0-.1-.54,1.39,1.39,0,0,0-.32-.48,1.49,1.49,0,0,0-.52-.35,2.1,2.1,0,0,0-.75-.13,2.7,2.7,0,0,0-.68.08,2.63,2.63,0,0,0-.54.19,2.05,2.05,0,0,0-.43.26l-.38.28Zm3.81,2.82a8.31,8.31,0,0,0-1,.06,3.57,3.57,0,0,0-.91.2,1.79,1.79,0,0,0-.68.42,1,1,0,0,0-.26.69,1,1,0,0,0,.41.88,2,2,0,0,0,1.12.27,2.07,2.07,0,0,0,.94-.19,1.7,1.7,0,0,0,.63-.48,1.87,1.87,0,0,0,.35-.67,2.62,2.62,0,0,0,.1-.73v-.45Z" transform="translate(-69.52 -47.36)"/><path class="cls-1" d="M353.37,166.06h1.35v1.1h0a2,2,0,0,1,.89-.92,2.86,2.86,0,0,1,1.45-.36,3.31,3.31,0,0,1,1,.16,2.21,2.21,0,0,1,1.38,1.34,3.21,3.21,0,0,1,.21,1.22v4.57h-1.35V169a2.41,2.41,0,0,0-.13-.85,1.51,1.51,0,0,0-.36-.56,1.33,1.33,0,0,0-.52-.32,2.05,2.05,0,0,0-.61-.1,2.21,2.21,0,0,0-.78.14,1.58,1.58,0,0,0-.63.43,2,2,0,0,0-.42.74,3.35,3.35,0,0,0-.15,1.06v3.66h-1.35Z" transform="translate(-69.52 -47.36)"/><path class="cls-1" d="M365.28,163.51a1,1,0,0,1,1-1,.94.94,0,0,1,.7.3.91.91,0,0,1,.29.69,1,1,0,0,1-1,1,.91.91,0,0,1-.69-.29A.94.94,0,0,1,365.28,163.51Zm.32,2.55H367v7.11H365.6Z" transform="translate(-69.52 -47.36)"/><path class="cls-1" d="M368.9,166.06h1.35v1.1h0a2,2,0,0,1,.88-.92,2.9,2.9,0,0,1,1.46-.36,3.19,3.19,0,0,1,1,.16,2.31,2.31,0,0,1,.83.49,2.38,2.38,0,0,1,.56.85,3.21,3.21,0,0,1,.21,1.22v4.57h-1.35V169a2.4,2.4,0,0,0-.14-.85,1.51,1.51,0,0,0-.36-.56,1.33,1.33,0,0,0-.52-.32,2,2,0,0,0-.6-.1,2.21,2.21,0,0,0-.78.14,1.58,1.58,0,0,0-.63.43,2,2,0,0,0-.42.74,3.35,3.35,0,0,0-.15,1.06v3.66H368.9Z" transform="translate(-69.52 -47.36)"/><path class="cls-1" d="M379.61,163.9h-3.42v-1.35h8.28v1.35h-3.42v9.27h-1.44Z" transform="translate(-69.52 -47.36)"/><path class="cls-1" d="M385.8,162.55h6.86v1.35h-5.42v3.17h5v1.35h-5v3.4h5.69v1.35H385.8Z" transform="translate(-69.52 -47.36)"/><path class="cls-1" d="M395.09,171a2.43,2.43,0,0,0,1,.87,3.11,3.11,0,0,0,1.26.27,2.35,2.35,0,0,0,.73-.11,2.07,2.07,0,0,0,.68-.34,1.78,1.78,0,0,0,.51-.55,1.49,1.49,0,0,0,.19-.77,1.12,1.12,0,0,0-.39-.93,3.1,3.1,0,0,0-1-.54,13.27,13.27,0,0,0-1.26-.42,5.26,5.26,0,0,1-1.25-.57,2.78,2.78,0,0,1-1.36-2.61,2.86,2.86,0,0,1,.2-1,2.7,2.7,0,0,1,.64-1,3.44,3.44,0,0,1,1.11-.72,4.12,4.12,0,0,1,1.65-.3,5.7,5.7,0,0,1,1.66.24,2.88,2.88,0,0,1,1.4,1l-1.17,1.06a2,2,0,0,0-.77-.67,2.4,2.4,0,0,0-1.12-.26,2.83,2.83,0,0,0-1,.16,1.77,1.77,0,0,0-.64.41,1.45,1.45,0,0,0-.34.53,1.72,1.72,0,0,0-.09.52,1.35,1.35,0,0,0,.39,1,3,3,0,0,0,1,.58,12.43,12.43,0,0,0,1.26.41,5.43,5.43,0,0,1,1.26.5,3,3,0,0,1,1,.87,2.58,2.58,0,0,1,.39,1.51,3.25,3.25,0,0,1-.29,1.38,3,3,0,0,1-.79,1,3.5,3.5,0,0,1-1.17.65,4.52,4.52,0,0,1-1.44.22,5.21,5.21,0,0,1-1.93-.36A3.2,3.2,0,0,1,393.9,172Z" transform="translate(-69.52 -47.36)"/><path class="cls-1" d="M405.14,163.9h-3.42v-1.35H410v1.35h-3.42v9.27h-1.44Z" transform="translate(-69.52 -47.36)"/><path class="cls-1" d="M422.7,164.85a3,3,0,0,0-1.14-.9,3.38,3.38,0,0,0-1.42-.32,3.89,3.89,0,0,0-1.63.34,3.83,3.83,0,0,0-1.25.92,4.28,4.28,0,0,0-.8,1.38,4.86,4.86,0,0,0-.28,1.68,4.66,4.66,0,0,0,.27,1.59,4,4,0,0,0,.78,1.32,3.64,3.64,0,0,0,1.24.9,4,4,0,0,0,1.67.33,3.29,3.29,0,0,0,1.6-.37,3.44,3.44,0,0,0,1.17-1.05l1.22.91a5.37,5.37,0,0,1-.42.48,4.27,4.27,0,0,1-.8.61,5.26,5.26,0,0,1-1.19.54,5,5,0,0,1-1.61.23,5.29,5.29,0,0,1-2.28-.48,5.47,5.47,0,0,1-1.72-1.26,5.36,5.36,0,0,1-1.09-1.76,5.52,5.52,0,0,1-.37-2,6.23,6.23,0,0,1,.4-2.27,5.55,5.55,0,0,1,1.13-1.8,5.2,5.2,0,0,1,1.75-1.18,5.85,5.85,0,0,1,2.25-.42,5.48,5.48,0,0,1,2.06.41,3.82,3.82,0,0,1,1.66,1.24Z" transform="translate(-69.52 -47.36)"/><path class="cls-1" d="M425,169.62a3.73,3.73,0,0,1,.29-1.46,3.88,3.88,0,0,1,.81-1.18,3.83,3.83,0,0,1,2.68-1.1,3.71,3.71,0,0,1,1.49.3,3.66,3.66,0,0,1,1.2.8,3.85,3.85,0,0,1,.8,1.18,3.82,3.82,0,0,1,0,2.92,3.64,3.64,0,0,1-2,2,3.88,3.88,0,0,1-1.49.29,3.74,3.74,0,0,1-3.49-2.27A3.77,3.77,0,0,1,425,169.62Zm1.44,0a3,3,0,0,0,.17,1,2.09,2.09,0,0,0,1.2,1.29,2.5,2.5,0,0,0,1,.18,2.55,2.55,0,0,0,1-.18,2.28,2.28,0,0,0,.73-.51,2.36,2.36,0,0,0,.47-.78,3.2,3.2,0,0,0,0-2,2.36,2.36,0,0,0-.47-.78,2.13,2.13,0,0,0-.73-.51,2.55,2.55,0,0,0-1-.19,2.5,2.5,0,0,0-1,.19,2.17,2.17,0,0,0-.74.51,2.33,2.33,0,0,0-.46.78A3,3,0,0,0,426.42,169.62Z" transform="translate(-69.52 -47.36)"/><path class="cls-1" d="M434,166.06h1.26v1.11h0a1.24,1.24,0,0,1,.23-.37,2.53,2.53,0,0,1,.48-.43,3.17,3.17,0,0,1,.69-.34,2.5,2.5,0,0,1,.88-.15,2.54,2.54,0,0,1,1.34.33,2.44,2.44,0,0,1,.88,1,2.29,2.29,0,0,1,1-1,2.7,2.7,0,0,1,1.27-.33,3,3,0,0,1,1.35.27,2.16,2.16,0,0,1,.83.72,2.78,2.78,0,0,1,.41,1,6.34,6.34,0,0,1,.11,1.16v4.14h-1.35v-4a6.53,6.53,0,0,0-.05-.78,1.9,1.9,0,0,0-.22-.66,1.17,1.17,0,0,0-.46-.45,1.55,1.55,0,0,0-.8-.18,1.57,1.57,0,0,0-1.39.6,2.65,2.65,0,0,0-.42,1.55v3.88h-1.35v-3.72a6.61,6.61,0,0,0-.06-.93,2,2,0,0,0-.21-.73,1.07,1.07,0,0,0-.45-.47,1.45,1.45,0,0,0-.78-.18,1.69,1.69,0,0,0-.7.15,1.53,1.53,0,0,0-.59.42,2.14,2.14,0,0,0-.41.73,3.26,3.26,0,0,0-.15,1v3.69H434Z" transform="translate(-69.52 -47.36)"/><path class="cls-1" d="M446.63,166.06H448v1h0a2.52,2.52,0,0,1,1.07-.88,3.29,3.29,0,0,1,1.4-.32,3.74,3.74,0,0,1,1.49.29,3.2,3.2,0,0,1,1.14.79,3.49,3.49,0,0,1,.73,1.2,4.11,4.11,0,0,1,.26,1.46,4.22,4.22,0,0,1-.26,1.48,3.4,3.4,0,0,1-.73,1.18,3.2,3.2,0,0,1-1.14.79,3.73,3.73,0,0,1-1.49.28A3.23,3.23,0,0,1,449,173a2.42,2.42,0,0,1-1-.88h0v5.25h-1.35Zm3.69,1.08a2.55,2.55,0,0,0-1,.19,2.13,2.13,0,0,0-.73.51,2.36,2.36,0,0,0-.47.78,3.21,3.21,0,0,0,0,2,2.36,2.36,0,0,0,.47.78,2.28,2.28,0,0,0,.73.51,2.55,2.55,0,0,0,1,.18,2.5,2.5,0,0,0,1-.18,2.09,2.09,0,0,0,1.2-1.29,3,3,0,0,0,0-2,2.33,2.33,0,0,0-.46-.78,2.17,2.17,0,0,0-.74-.51A2.5,2.5,0,0,0,450.32,167.14Z" transform="translate(-69.52 -47.36)"/><path class="cls-1" d="M455.63,166.93a3.67,3.67,0,0,1,1.32-.78,4.4,4.4,0,0,1,1.5-.27,4.11,4.11,0,0,1,1.34.2,2.64,2.64,0,0,1,.92.52,2.06,2.06,0,0,1,.53.76,2.28,2.28,0,0,1,.18.89v3.63c0,.25,0,.48,0,.69s0,.41.05.6h-1.2c0-.36,0-.72,0-1.08h0a2.59,2.59,0,0,1-1.06,1,3.38,3.38,0,0,1-1.43.28,3.24,3.24,0,0,1-.94-.13,2.28,2.28,0,0,1-.79-.41,1.89,1.89,0,0,1-.53-.66,2.12,2.12,0,0,1-.2-.93,2,2,0,0,1,.31-1.15,2.21,2.21,0,0,1,.84-.76,4.3,4.3,0,0,1,1.24-.42,9.28,9.28,0,0,1,1.53-.13h1v-.3a1.49,1.49,0,0,0-.11-.54,1.37,1.37,0,0,0-.31-.48,1.53,1.53,0,0,0-.53-.35,2.1,2.1,0,0,0-.75-.13,2.7,2.7,0,0,0-.68.08,2.54,2.54,0,0,0-.53.19,2.13,2.13,0,0,0-.44.26l-.37.28Zm3.81,2.82a8.47,8.47,0,0,0-1,.06,3.57,3.57,0,0,0-.91.2,1.79,1.79,0,0,0-.68.42,1,1,0,0,0-.26.69,1,1,0,0,0,.41.88,2,2,0,0,0,1.12.27,2.12,2.12,0,0,0,.95-.19,1.7,1.7,0,0,0,.63-.48,1.85,1.85,0,0,0,.34-.67,2.64,2.64,0,0,0,.11-.73v-.45Z" transform="translate(-69.52 -47.36)"/><path class="cls-1" d="M463.19,166.06h1.35v1.1h0a2,2,0,0,1,.88-.92,2.9,2.9,0,0,1,1.46-.36,3.24,3.24,0,0,1,1,.16,2.26,2.26,0,0,1,1.39,1.34,3.21,3.21,0,0,1,.21,1.22v4.57h-1.35V169a2.4,2.4,0,0,0-.14-.85,1.51,1.51,0,0,0-.36-.56,1.33,1.33,0,0,0-.52-.32,2,2,0,0,0-.6-.1,2.21,2.21,0,0,0-.78.14,1.58,1.58,0,0,0-.63.43,2,2,0,0,0-.42.74,3.35,3.35,0,0,0-.15,1.06v3.66h-1.35Z" transform="translate(-69.52 -47.36)"/><path class="cls-1" d="M470.49,166.06h1.56l2.11,5.55h0l2-5.55h1.44l-3.38,8.64c-.12.31-.24.59-.37.85a2.47,2.47,0,0,1-.47.65,1.78,1.78,0,0,1-.64.42,2.61,2.61,0,0,1-.94.15l-.6,0a2.34,2.34,0,0,1-.59-.16l.16-1.23a2.11,2.11,0,0,0,.8.16,1.38,1.38,0,0,0,.53-.08,1.07,1.07,0,0,0,.38-.24,1.64,1.64,0,0,0,.26-.37q.1-.21.21-.48l.43-1.12Z" transform="translate(-69.52 -47.36)"/><polygon class="cls-1" points="136.18 43.09 121.29 3.27 113.37 3.27 132.69 53.93 139.54 53.93 158.93 3.27 151.07 3.27 136.18 43.09"/><rect class="cls-1" x="161.93" y="19.62" width="7.06" height="34.31"/><path class="cls-1" d="M231.92,54.29a4.42,4.42,0,0,0,0,6.51,4.42,4.42,0,0,0,6.12,0,4.44,4.44,0,0,0,0-6.51A4.44,4.44,0,0,0,231.92,54.29Z" transform="translate(-69.52 -47.36)"/><path class="cls-1" d="M272.81,70.49a14,14,0,0,0-3.7-2.6,16.39,16.39,0,0,0-7.28-1.73,18.41,18.41,0,0,0-7.25,1.39A16.79,16.79,0,0,0,249,71.37a17.19,17.19,0,0,0-3.59,5.72,20,20,0,0,0,0,14.09A17.25,17.25,0,0,0,249,96.89a16.6,16.6,0,0,0,5.58,3.82,18.24,18.24,0,0,0,7.25,1.4,16.68,16.68,0,0,0,7.27-1.69,14.49,14.49,0,0,0,3.71-2.55v3.42h7.06V47.36h-7.06Zm-2.6,5.31a11.41,11.41,0,0,1,2.31,3.7,13.21,13.21,0,0,1,0,9.27,11,11,0,0,1-2.3,3.65,10.76,10.76,0,0,1-7.91,3.3,11.4,11.4,0,0,1-4.62-.88,9.51,9.51,0,0,1-3.36-2.42,10.94,10.94,0,0,1-2.11-3.68,14.51,14.51,0,0,1,0-9.21,11.08,11.08,0,0,1,2.11-3.69,10,10,0,0,1,3.37-2.45,11.06,11.06,0,0,1,4.61-.91,10.82,10.82,0,0,1,4.41.88A10.56,10.56,0,0,1,270.21,75.8Z" transform="translate(-69.52 -47.36)"/><path class="cls-1" d="M315.79,71.23a14.93,14.93,0,0,0-5.18-3.71,17.66,17.66,0,0,0-7.1-1.36,17.19,17.19,0,0,0-6.82,1.36,16.93,16.93,0,0,0-5.5,3.78A17.37,17.37,0,0,0,287.53,77a19.06,19.06,0,0,0-1.31,7.12,18.6,18.6,0,0,0,1.35,7.14,18,18,0,0,0,3.69,5.7,16.62,16.62,0,0,0,5.62,3.78,18.21,18.21,0,0,0,7,1.36,18.94,18.94,0,0,0,7.89-1.68,18.46,18.46,0,0,0,6.75-5.53l.76-1-5.5-4.31-.71,1.15a11.47,11.47,0,0,1-3.61,3.47,10.23,10.23,0,0,1-5.58,1.47,10,10,0,0,1-4.08-.82,10.39,10.39,0,0,1-3.3-2.23,10.17,10.17,0,0,1-2.2-3.28,11.21,11.21,0,0,1-.75-2.81h26.2l.12-1.09A11.65,11.65,0,0,0,320,84.2v-1a20,20,0,0,0-1.05-6.53A16.07,16.07,0,0,0,315.79,71.23Zm-22.06,9.24a9.72,9.72,0,0,1,.73-2.19,10.23,10.23,0,0,1,2.13-3,10,10,0,0,1,3.11-2.07,9.56,9.56,0,0,1,3.81-.75c3,0,5.19.83,6.76,2.56a9.78,9.78,0,0,1,2.47,5.43Z" transform="translate(-69.52 -47.36)"/><path class="cls-1" d="M356.63,71.29a17,17,0,0,0-5.79-3.78,20.41,20.41,0,0,0-14.6,0,17.2,17.2,0,0,0-5.78,3.78A17,17,0,0,0,326.69,77a19.4,19.4,0,0,0,0,14.27,16.94,16.94,0,0,0,9.56,9.49,19.41,19.41,0,0,0,7.26,1.35,19.63,19.63,0,0,0,7.33-1.35A17.15,17.15,0,0,0,356.63,97a17.33,17.33,0,0,0,3.77-5.71,19.42,19.42,0,0,0,0-14.28A17.39,17.39,0,0,0,356.63,71.29Zm-2.21,12.84a13.43,13.43,0,0,1-.78,4.6,10.92,10.92,0,0,1-2.18,3.68,9.87,9.87,0,0,1-3.4,2.43,11.19,11.19,0,0,1-4.55.88,10.93,10.93,0,0,1-4.51-.88,9.81,9.81,0,0,1-3.37-2.43,10.92,10.92,0,0,1-2.18-3.68,13.92,13.92,0,0,1,0-9.19,11.07,11.07,0,0,1,2.18-3.69A10.26,10.26,0,0,1,339,73.38a11.74,11.74,0,0,1,9,0,10.4,10.4,0,0,1,3.41,2.46,11.07,11.07,0,0,1,2.18,3.69A13.37,13.37,0,0,1,354.42,84.13Z" transform="translate(-69.52 -47.36)"/><rect class="cls-1" x="298.58" width="7.06" height="53.93"/><path class="cls-1" d="M412.8,71.29A17.1,17.1,0,0,0,407,67.51a19.52,19.52,0,0,0-7.34-1.35,19.25,19.25,0,0,0-7.26,1.35A16.94,16.94,0,0,0,382.86,77a19.53,19.53,0,0,0,0,14.27,16.94,16.94,0,0,0,9.56,9.49,19.45,19.45,0,0,0,7.26,1.35,19.72,19.72,0,0,0,7.34-1.35,17,17,0,0,0,9.56-9.49,19.56,19.56,0,0,0,0-14.28A17.26,17.26,0,0,0,412.8,71.29Zm-2.21,12.84a13.43,13.43,0,0,1-.78,4.6,10.92,10.92,0,0,1-2.18,3.68,9.78,9.78,0,0,1-3.4,2.43,11.16,11.16,0,0,1-4.55.88,10.93,10.93,0,0,1-4.51-.88,9.91,9.91,0,0,1-3.37-2.43,10.92,10.92,0,0,1-2.18-3.68,13.92,13.92,0,0,1,0-9.19,11.24,11.24,0,0,1,2.18-3.69,10.24,10.24,0,0,1,3.39-2.46,10.53,10.53,0,0,1,4.49-.91,10.83,10.83,0,0,1,4.54.91,10.3,10.3,0,0,1,3.41,2.46,11.07,11.07,0,0,1,2.18,3.69A13.37,13.37,0,0,1,410.59,84.13Z" transform="translate(-69.52 -47.36)"/><path class="cls-1" d="M451.8,70.45a14,14,0,0,0-3.63-2.53,16.54,16.54,0,0,0-7.34-1.76,18.5,18.5,0,0,0-7.26,1.39A16.89,16.89,0,0,0,428,71.37,17.63,17.63,0,0,0,424.4,77a18.38,18.38,0,0,0-1.28,6.85,18.59,18.59,0,0,0,1.28,6.92A16.3,16.3,0,0,0,428,96.33a16.6,16.6,0,0,0,5.58,3.64,19.09,19.09,0,0,0,7.24,1.32,16.76,16.76,0,0,0,7.37-1.76,14,14,0,0,0,3.6-2.47V99.8a15.73,15.73,0,0,1-.63,4.52,9.53,9.53,0,0,1-1.9,3.54,8.85,8.85,0,0,1-3.39,2.36,14.86,14.86,0,0,1-11.75-.67,14.14,14.14,0,0,1-4.81-3.82l-.87-1.12-5.1,5.41.79.84a21.73,21.73,0,0,0,7.29,5,22.82,22.82,0,0,0,8.92,1.8,21.06,21.06,0,0,0,9.18-1.76,16.33,16.33,0,0,0,5.7-4.43,15.17,15.17,0,0,0,2.89-5.84,25.07,25.07,0,0,0,.74-5.81V67H451.8Zm-2.59,5.4a11.32,11.32,0,0,1,3.14,7.87,12.31,12.31,0,0,1-.83,4.62,10.41,10.41,0,0,1-2.29,3.52,10.25,10.25,0,0,1-3.47,2.25,12.16,12.16,0,0,1-4.46.8,11.4,11.4,0,0,1-4.62-.89,9.69,9.69,0,0,1-3.36-2.39,10.69,10.69,0,0,1-2.12-3.55,13.18,13.18,0,0,1,0-8.71,10.69,10.69,0,0,1,2.12-3.55,9.9,9.9,0,0,1,3.38-2.43,11,11,0,0,1,4.6-.91,10.47,10.47,0,0,1,4.4.91A11.27,11.27,0,0,1,449.21,75.85Z" transform="translate(-69.52 -47.36)"/><path class="cls-1" d="M489.84,67l-9.15,24.91L470.66,67h-7.84L477,100l-2.41,6.22a11.53,11.53,0,0,1-2.13,3.79,3.67,3.67,0,0,1-2.86,1.08,9.55,9.55,0,0,1-3-.48l-1.43-.48-.77,6.82,1.1.22a22.16,22.16,0,0,0,4.39.44,9.85,9.85,0,0,0,7.23-2.57,18.17,18.17,0,0,0,3.92-6.31L497.51,67Z" transform="translate(-69.52 -47.36)"/><path class="cls-1" d="M487.45,111.84a6.43,6.43,0,0,1,1.92-4.58,6.86,6.86,0,0,1,2.06-1.39,6.51,6.51,0,0,1,5.05,0,6.91,6.91,0,0,1,2.07,1.39,6.38,6.38,0,0,1,1.4,2,6.32,6.32,0,0,1,.51,2.53,6.22,6.22,0,0,1-.51,2.51,6.42,6.42,0,0,1-3.47,3.4,6.63,6.63,0,0,1-5.05,0,6.45,6.45,0,0,1-3.46-3.4A6.23,6.23,0,0,1,487.45,111.84Zm1,0a5.24,5.24,0,0,0,.43,2.11,5.49,5.49,0,0,0,1.17,1.75,5.11,5.11,0,0,0,1.74,1.18,5.46,5.46,0,0,0,6-1.18A5.84,5.84,0,0,0,499,114a5.59,5.59,0,0,0,0-4.25,5.55,5.55,0,0,0-1.17-1.74,5.44,5.44,0,0,0-1.74-1.17,5.54,5.54,0,0,0-4.28,0,5.46,5.46,0,0,0-3.34,5Zm2.94-3.68H494a4.06,4.06,0,0,1,1,.11,2.63,2.63,0,0,1,.87.37,1.87,1.87,0,0,1,.62.66,2,2,0,0,1,.23,1,1.85,1.85,0,0,1-.46,1.29,2.18,2.18,0,0,1-1.23.67l2,3.2h-1.6l-1.71-3h-.94v3h-1.31Zm2.37,3.19a2.81,2.81,0,0,0,1.08-.21.86.86,0,0,0,.51-.87.77.77,0,0,0-.47-.8,2.53,2.53,0,0,0-1-.2h-1.2v2.08Z" transform="translate(-69.52 -47.36)"/><rect class="cls-2" x="141.47" y="83.22" width="2.02" height="18.63"/><path class="cls-2" d="M222.4,136.45a4,4,0,0,0-2.24.69,4.2,4.2,0,0,0-1.22,1.19c0-.09,0-.19,0-.29,0-.4,0-.77-.06-1.1l0-.18H217V137c0,.41.05.87.07,1.38s0,.93,0,1.26v9.6H219v-6.39a6.86,6.86,0,0,1,.27-2,4.46,4.46,0,0,1,.68-1.4,2.67,2.67,0,0,1,1-.8,2.37,2.37,0,0,1,1.09-.27,2.62,2.62,0,0,1,1.29.29,2.09,2.09,0,0,1,.8.79,3.91,3.91,0,0,1,.44,1.25,10.85,10.85,0,0,1,.13,1.69v6.88h1.93v-7.6a6.16,6.16,0,0,0-1-3.72A3.69,3.69,0,0,0,222.4,136.45Z" transform="translate(-69.52 -47.36)"/><path class="cls-2" d="M239.23,138.43a4.73,4.73,0,0,0-1.51-1.35,4.68,4.68,0,0,0-2.32-.63,5.21,5.21,0,0,0-2.33.51,5.5,5.5,0,0,0-1.78,1.39,6.43,6.43,0,0,0-1.14,2.08,8.39,8.39,0,0,0,0,5.12,6.38,6.38,0,0,0,1.14,2.07,5.23,5.23,0,0,0,4.11,1.9,4.76,4.76,0,0,0,2.32-.61,4.67,4.67,0,0,0,1.51-1.33v1.64h1.93V129.35h-1.93Zm-.93,1.22a4.55,4.55,0,0,1,.81,1.49,5.85,5.85,0,0,1,0,3.7,4.36,4.36,0,0,1-.81,1.47,3.9,3.9,0,0,1-1.21,1,3.45,3.45,0,0,1-1.54.35,3.54,3.54,0,0,1-1.59-.35,3.42,3.42,0,0,1-1.19-1,4.47,4.47,0,0,1-.74-1.48,6.37,6.37,0,0,1-.26-1.83,6.44,6.44,0,0,1,.26-1.84,4.67,4.67,0,0,1,.74-1.48,3.54,3.54,0,0,1,1.19-1,3.42,3.42,0,0,1,1.59-.37,3.36,3.36,0,0,1,1.54.36A3.76,3.76,0,0,1,238.3,139.65Z" transform="translate(-69.52 -47.36)"/><path class="cls-2" d="M254.65,147.62c0-.52,0-.93,0-1.26v-9.6h-1.94v6.38a7.18,7.18,0,0,1-.26,2,4.22,4.22,0,0,1-.69,1.41,2.73,2.73,0,0,1-1,.8,2.37,2.37,0,0,1-1.1.26,2.58,2.58,0,0,1-1.28-.28,2,2,0,0,1-.8-.79,3.47,3.47,0,0,1-.44-1.26,9.6,9.6,0,0,1-.13-1.69v-6.87H245.1v7.59a6.19,6.19,0,0,0,1,3.73,3.69,3.69,0,0,0,3.17,1.44,4.12,4.12,0,0,0,2.25-.68,4.16,4.16,0,0,0,1.21-1.19c0,.09,0,.19,0,.29,0,.4,0,.76.07,1.09l0,.19h1.86V149C254.68,148.59,254.66,148.13,254.65,147.62Z" transform="translate(-69.52 -47.36)"/><path class="cls-2" d="M262.17,141.87a5.28,5.28,0,0,1-1.84-.73,1.32,1.32,0,0,1-.53-1.14,1.6,1.6,0,0,1,.17-.75,1.67,1.67,0,0,1,.45-.53,1.84,1.84,0,0,1,.65-.3,3.3,3.3,0,0,1,.76-.1,2.51,2.51,0,0,1,1.45.44,2.78,2.78,0,0,1,1,1.14l.11.25,1.49-1.28-.07-.14a3.91,3.91,0,0,0-1.63-1.69,4.79,4.79,0,0,0-3.69-.37,3.8,3.8,0,0,0-1.28.66,3.44,3.44,0,0,0-.9,1.15,3.93,3.93,0,0,0-.33,1.68,3.23,3.23,0,0,0,.31,1.5,3.34,3.34,0,0,0,.8,1,3.49,3.49,0,0,0,1,.6,10.51,10.51,0,0,0,1,.32,9.61,9.61,0,0,1,2.26.87,1.36,1.36,0,0,1,.7,1.26,2,2,0,0,1-.18.9,1.73,1.73,0,0,1-.48.59,1.84,1.84,0,0,1-.71.32,4.35,4.35,0,0,1-.9.1,2.78,2.78,0,0,1-1.62-.51,3.31,3.31,0,0,1-1.13-1.26l-.12-.23-1.54,1.31.09.14a4.78,4.78,0,0,0,1.93,1.86,5.34,5.34,0,0,0,2.41.58,5.28,5.28,0,0,0,1.48-.2,3.59,3.59,0,0,0,1.35-.68,3.55,3.55,0,0,0,1-1.22,4.09,4.09,0,0,0,.37-1.83,3.16,3.16,0,0,0-1-2.4A6.11,6.11,0,0,0,262.17,141.87Z" transform="translate(-69.52 -47.36)"/><path class="cls-2" d="M273.73,147.11a2.29,2.29,0,0,1-.62.27,2,2,0,0,1-1.18,0,.92.92,0,0,1-.41-.27,1.4,1.4,0,0,1-.28-.6,4.42,4.42,0,0,1-.11-1.06v-6.83h3v-1.87h-3v-3.4H269.2v3.4H267v1.87h2.19V146a4.55,4.55,0,0,0,.27,1.7,2.84,2.84,0,0,0,.72,1,2.29,2.29,0,0,0,1,.53,3.64,3.64,0,0,0,1,.14,4.58,4.58,0,0,0,1-.1A3.62,3.62,0,0,0,274,149l.13-.05-.09-2Z" transform="translate(-69.52 -47.36)"/><path class="cls-2" d="M282.06,136.48a4.44,4.44,0,0,0-.55,0,3.56,3.56,0,0,0-2.14.7,4.3,4.3,0,0,0-1.09,1.16c0-.08,0-.18,0-.27,0-.4,0-.77-.07-1.1l0-.18h-1.86V137c0,.41.06.87.07,1.38s0,.93,0,1.26v9.6h1.93v-6.37a6.94,6.94,0,0,1,.25-2,4.24,4.24,0,0,1,.64-1.35,2.4,2.4,0,0,1,.91-.75,2.93,2.93,0,0,1,1.68-.19,2.67,2.67,0,0,1,.41.1l.24.09.26-2.1-.16,0A3.58,3.58,0,0,0,282.06,136.48Z" transform="translate(-69.52 -47.36)"/><rect class="cls-2" x="215.37" y="89.4" width="1.93" height="12.45"/><path class="cls-2" d="M285,131.3a1.42,1.42,0,0,0-.39,1,1.44,1.44,0,0,0,.39,1,1.22,1.22,0,0,0,.89.41,1.25,1.25,0,0,0,.89-.41,1.56,1.56,0,0,0,0-2.06A1.18,1.18,0,0,0,285,131.3Z" transform="translate(-69.52 -47.36)"/><path class="cls-2" d="M299.37,147.74c0-.49-.05-1-.05-1.43V141a5.55,5.55,0,0,0-.33-2,3.92,3.92,0,0,0-.92-1.44,3.8,3.8,0,0,0-1.38-.85,4.76,4.76,0,0,0-1.67-.29,5.94,5.94,0,0,0-2.5.51,5.19,5.19,0,0,0-1.79,1.29l-.11.12,1.1,1.49.17-.19a3.79,3.79,0,0,1,1.31-1,3.89,3.89,0,0,1,1.67-.37,2.54,2.54,0,0,1,1.94.71,3.11,3.11,0,0,1,.67,2.18v.19c-.89,0-1.76,0-2.6.11a9.06,9.06,0,0,0-2.43.53,3.91,3.91,0,0,0-1.74,1.28,3.77,3.77,0,0,0-.66,2.33,4,4,0,0,0,.37,1.8,3.64,3.64,0,0,0,.93,1.2,3.56,3.56,0,0,0,1.24.67,4.39,4.39,0,0,0,1.31.2,4.1,4.1,0,0,0,3.68-1.88l0,.44q0,.53.12,1l0,.18h1.78l0-.24A11.59,11.59,0,0,1,299.37,147.74Zm-1.89-4.55v.7a4.69,4.69,0,0,1-.22,1.46,3.85,3.85,0,0,1-.62,1.21,2.83,2.83,0,0,1-1,.82,3.15,3.15,0,0,1-2.18.19,2.19,2.19,0,0,1-.74-.35,1.81,1.81,0,0,1-.51-.64,2.21,2.21,0,0,1-.19-1,1.67,1.67,0,0,1,.44-1.23,3,3,0,0,1,1.19-.73,7.53,7.53,0,0,1,1.69-.35c.63-.06,1.26-.09,1.88-.09Z" transform="translate(-69.52 -47.36)"/><rect class="cls-2" x="233.72" y="81.99" width="1.93" height="19.87"/><rect class="cls-2" x="238.75" y="94.47" width="5.45" height="1.87"/><path class="cls-2" d="M324.91,141.31h3.71v5.23a5.84,5.84,0,0,1-1.68.76,8.38,8.38,0,0,1-2.42.33,5.67,5.67,0,0,1-2.66-.62,6.41,6.41,0,0,1-2-1.67,7.57,7.57,0,0,1-1.28-2.46,9.82,9.82,0,0,1,0-5.94,7.72,7.72,0,0,1,1.28-2.47,6.18,6.18,0,0,1,2-1.68,5.67,5.67,0,0,1,2.66-.62,5.9,5.9,0,0,1,2.55.53,5.69,5.69,0,0,1,1.91,1.51l.15.18,1.4-1.6-.11-.13a7.57,7.57,0,0,0-2.5-1.87,8.09,8.09,0,0,0-3.42-.67,7.89,7.89,0,0,0-3.39.74,8.42,8.42,0,0,0-2.7,2,9.89,9.89,0,0,0-1.78,3.09,12.32,12.32,0,0,0,0,7.81,9.44,9.44,0,0,0,1.76,3.09,8.1,8.1,0,0,0,2.7,2.05,8,8,0,0,0,3.42.74,11.26,11.26,0,0,0,3.18-.45,10,10,0,0,0,2.88-1.37l.09-.06v-8.54h-5.74Z" transform="translate(-69.52 -47.36)"/><path class="cls-2" d="M340.27,136.48a4.56,4.56,0,0,0-.55,0,3.56,3.56,0,0,0-2.14.7,4.15,4.15,0,0,0-1.09,1.16,2.35,2.35,0,0,1,0-.27c0-.4,0-.77-.07-1.1l0-.18h-1.86V137c0,.41.06.87.07,1.38s0,.93,0,1.26v9.6h1.94v-6.37a6.94,6.94,0,0,1,.25-2,4.24,4.24,0,0,1,.64-1.35,2.45,2.45,0,0,1,.9-.75,3,3,0,0,1,1.69-.19,2.67,2.67,0,0,1,.41.1l.24.09.25-2.1-.16,0A3.21,3.21,0,0,0,340.27,136.48Z" transform="translate(-69.52 -47.36)"/><path class="cls-2" d="M351.34,147.74c0-.49,0-1,0-1.43V141a5.55,5.55,0,0,0-.33-2,3.92,3.92,0,0,0-.92-1.44,3.8,3.8,0,0,0-1.38-.85,4.76,4.76,0,0,0-1.67-.29,5.94,5.94,0,0,0-2.5.51,5.19,5.19,0,0,0-1.79,1.29l-.11.12,1.1,1.49.17-.19a3.79,3.79,0,0,1,1.31-1,3.85,3.85,0,0,1,1.66-.37,2.55,2.55,0,0,1,1.95.71,3.11,3.11,0,0,1,.67,2.18v.19c-.89,0-1.76,0-2.6.11a9,9,0,0,0-2.43.53,3.91,3.91,0,0,0-1.74,1.28,3.77,3.77,0,0,0-.66,2.33,3.93,3.93,0,0,0,.37,1.8,3.64,3.64,0,0,0,.93,1.2,3.56,3.56,0,0,0,1.24.67,4.3,4.3,0,0,0,1.31.2,4.1,4.1,0,0,0,3.68-1.88l0,.44c0,.35.07.67.12,1l0,.18h1.78l0-.24A11,11,0,0,1,351.34,147.74Zm-1.89-4.55v.7a4.69,4.69,0,0,1-.22,1.46,3.85,3.85,0,0,1-.62,1.21,2.92,2.92,0,0,1-1,.82,3.17,3.17,0,0,1-2.19.19,2.1,2.1,0,0,1-.72-.35,1.65,1.65,0,0,1-.52-.64,2.21,2.21,0,0,1-.19-1,1.67,1.67,0,0,1,.44-1.23,3,3,0,0,1,1.19-.73,7.53,7.53,0,0,1,1.69-.35c.63-.06,1.26-.09,1.88-.09Z" transform="translate(-69.52 -47.36)"/><path class="cls-2" d="M363.88,138.43a4.77,4.77,0,0,0-3.83-2,5.27,5.27,0,0,0-2.33.51,5.36,5.36,0,0,0-1.77,1.39,6.43,6.43,0,0,0-1.14,2.08,8.2,8.2,0,0,0,0,5.12,6.38,6.38,0,0,0,1.14,2.07,5.21,5.21,0,0,0,1.77,1.39,5.27,5.27,0,0,0,2.33.51,4.8,4.8,0,0,0,2.33-.61,4.64,4.64,0,0,0,1.5-1.33v1.64h1.94V129.35h-1.94Zm-.92,1.22a4.75,4.75,0,0,1,.81,1.49,6,6,0,0,1,0,3.7,4.73,4.73,0,0,1-.81,1.47,3.82,3.82,0,0,1-1.22,1,3.41,3.41,0,0,1-1.53.35,3.58,3.58,0,0,1-1.6-.35,3.48,3.48,0,0,1-1.18-1,4.47,4.47,0,0,1-.74-1.48,6.42,6.42,0,0,1-.26-1.83,6.49,6.49,0,0,1,.26-1.84,4.67,4.67,0,0,1,.74-1.48,3.6,3.6,0,0,1,1.18-1,3.49,3.49,0,0,1,1.6-.37,3.29,3.29,0,0,1,1.53.36A3.69,3.69,0,0,1,363,139.65Z" transform="translate(-69.52 -47.36)"/><path class="cls-2" d="M378.52,138.29a4.87,4.87,0,0,0-1.64-1.34,5.06,5.06,0,0,0-2.28-.5,4.88,4.88,0,0,0-2.18.5,5.44,5.44,0,0,0-1.76,1.38,6.5,6.5,0,0,0-1.16,2.07,8.1,8.1,0,0,0,0,5.18,6.66,6.66,0,0,0,1.18,2.07,5.2,5.2,0,0,0,4.05,1.87,5.4,5.4,0,0,0,2.53-.61,6.2,6.2,0,0,0,2.16-2l.1-.15-1.47-1.32-.12.23a4.45,4.45,0,0,1-1.26,1.39,3.23,3.23,0,0,1-1.94.59,3.09,3.09,0,0,1-1.42-.33,3.87,3.87,0,0,1-1.16-.89,4.15,4.15,0,0,1-.77-1.33,5.2,5.2,0,0,1-.3-1.43h8.71l0-.18a3.67,3.67,0,0,0,0-.46v-.38a8.35,8.35,0,0,0-.34-2.38A6,6,0,0,0,378.52,138.29Zm-7.39,3.57a4.07,4.07,0,0,1,.3-1.2,4.55,4.55,0,0,1,.75-1.21,4,4,0,0,1,1.09-.83,3,3,0,0,1,1.33-.3,2.86,2.86,0,0,1,2.38,1.05,4.53,4.53,0,0,1,.9,2.49Z" transform="translate(-69.52 -47.36)"/><path class="cls-2" d="M401.31,145a5,5,0,0,1-2,2,5.43,5.43,0,0,1-2.52.62,5.67,5.67,0,0,1-2.66-.62,6.18,6.18,0,0,1-2-1.68,7.67,7.67,0,0,1-1.28-2.46,9.76,9.76,0,0,1-.46-3,10,10,0,0,1,.44-3,7.87,7.87,0,0,1,1.28-2.46,6.18,6.18,0,0,1,2-1.68,5.72,5.72,0,0,1,2.68-.62,4.63,4.63,0,0,1,1.37.2,5.11,5.11,0,0,1,1.19.52,4.27,4.27,0,0,1,.93.74,4.52,4.52,0,0,1,.64.83l.12.21,1.67-1.4-.09-.14a5.07,5.07,0,0,0-1.06-1.25,6.41,6.41,0,0,0-1.39-.94,8.16,8.16,0,0,0-1.63-.61,7.52,7.52,0,0,0-1.77-.21,7.89,7.89,0,0,0-3.39.74,8.42,8.42,0,0,0-2.7,2,9.89,9.89,0,0,0-1.78,3.09,12.32,12.32,0,0,0,0,7.81,9.44,9.44,0,0,0,1.76,3.09,8.1,8.1,0,0,0,2.7,2.05,8,8,0,0,0,3.42.74,7.47,7.47,0,0,0,2.05-.28,7.19,7.19,0,0,0,1.71-.77,6.3,6.3,0,0,0,1.37-1.13,7.66,7.66,0,0,0,1-1.35L403,146l-1.58-1.17Z" transform="translate(-69.52 -47.36)"/><path class="cls-2" d="M413.71,147.74c0-.49,0-1,0-1.43V141a5.55,5.55,0,0,0-.33-2,3.82,3.82,0,0,0-.93-1.44,3.76,3.76,0,0,0-1.37-.85,4.84,4.84,0,0,0-1.67-.29,6,6,0,0,0-2.51.51,5.29,5.29,0,0,0-1.79,1.29l-.1.12,1.1,1.49.16-.19a4,4,0,0,1,1.31-1,3.89,3.89,0,0,1,1.67-.37,2.56,2.56,0,0,1,2,.71,3.11,3.11,0,0,1,.66,2.18v.19c-.89,0-1.76,0-2.59.11a9,9,0,0,0-2.43.53,3.94,3.94,0,0,0-1.75,1.28,3.77,3.77,0,0,0-.66,2.33,4.06,4.06,0,0,0,.37,1.8,3.78,3.78,0,0,0,.93,1.2,3.56,3.56,0,0,0,1.24.67,4.39,4.39,0,0,0,1.31.2,4.11,4.11,0,0,0,3.69-1.88l0,.44c0,.35.07.67.11,1l0,.18h1.79l-.05-.24C413.79,148.65,413.74,148.23,413.71,147.74Zm-1.89-4.55v.7a5,5,0,0,1-.21,1.46,3.85,3.85,0,0,1-.62,1.21,3,3,0,0,1-1,.82,3.19,3.19,0,0,1-2.19.19,2.14,2.14,0,0,1-.73-.35,1.71,1.71,0,0,1-.51-.64,2.21,2.21,0,0,1-.2-1,1.67,1.67,0,0,1,.44-1.23,3.15,3.15,0,0,1,1.19-.73,7.53,7.53,0,0,1,1.69-.35c.63-.06,1.27-.09,1.88-.09Z" transform="translate(-69.52 -47.36)"/><path class="cls-2" d="M429.66,136.45a4,4,0,0,0-2.34.7A4.43,4.43,0,0,0,426,138.7a4.06,4.06,0,0,0-.5-.88,3.73,3.73,0,0,0-.86-.83,2.78,2.78,0,0,0-1-.43,3.79,3.79,0,0,0-3.13.59,4.16,4.16,0,0,0-1.12,1.17,2.53,2.53,0,0,1,0-.28c0-.4,0-.77-.07-1.1l0-.18h-1.86V137c0,.41.05.87.07,1.38s0,.93,0,1.26v9.6h1.94v-6.39a7.28,7.28,0,0,1,.26-2,4.46,4.46,0,0,1,.68-1.4,2.79,2.79,0,0,1,.92-.81,2.22,2.22,0,0,1,1-.26,2.46,2.46,0,0,1,1.16.25,1.72,1.72,0,0,1,.7.69,3.37,3.37,0,0,1,.37,1.16,10.6,10.6,0,0,1,.11,1.56v7.24h1.94V142.6a8.53,8.53,0,0,1,.15-1.61,4.82,4.82,0,0,1,.48-1.37,2.69,2.69,0,0,1,.86-.94,2.26,2.26,0,0,1,1.3-.36,2,2,0,0,1,1.93,1.06,6.35,6.35,0,0,1,.59,3v6.88h1.94v-7.6a6.1,6.1,0,0,0-1.05-3.72A3.68,3.68,0,0,0,429.66,136.45Z" transform="translate(-69.52 -47.36)"/><path class="cls-2" d="M446.43,138.29a4.77,4.77,0,0,0-1.64-1.34,5,5,0,0,0-2.28-.5,4.88,4.88,0,0,0-2.18.5,5.3,5.3,0,0,0-1.75,1.38,6.44,6.44,0,0,0-1.17,2.07A8,8,0,0,0,437,143a7.49,7.49,0,0,0,.43,2.59,6.44,6.44,0,0,0,1.17,2.07,5.35,5.35,0,0,0,1.79,1.38,5.19,5.19,0,0,0,2.26.49,5.37,5.37,0,0,0,2.53-.61,6.2,6.2,0,0,0,2.16-2l.1-.15L446,145.42l-.12.23a4.45,4.45,0,0,1-1.26,1.39,3.23,3.23,0,0,1-1.94.59,3.09,3.09,0,0,1-1.42-.33,3.71,3.71,0,0,1-1.15-.89,4.28,4.28,0,0,1-.78-1.33,5.19,5.19,0,0,1-.29-1.43h8.71l0-.18c0-.16,0-.31,0-.46v-.38a8,8,0,0,0-.34-2.38A5.84,5.84,0,0,0,446.43,138.29ZM439,141.86a4.42,4.42,0,0,1,1.06-2.41,4,4,0,0,1,1.08-.83,3,3,0,0,1,1.33-.3,2.86,2.86,0,0,1,2.38,1.05,4.38,4.38,0,0,1,.9,2.49Z" transform="translate(-69.52 -47.36)"/><path class="cls-2" d="M456.62,136.48a4.68,4.68,0,0,0-.55,0,3.61,3.61,0,0,0-2.15.7,4.46,4.46,0,0,0-1.09,1.16V138c0-.4,0-.77-.07-1.1l0-.18h-1.86V137c0,.41.05.87.07,1.38s0,.93,0,1.26v9.6h1.93v-6.37a6.91,6.91,0,0,1,.26-2,4.24,4.24,0,0,1,.64-1.35,2.45,2.45,0,0,1,.9-.75,3,3,0,0,1,1.69-.19,3.5,3.5,0,0,1,.41.1l.24.09.25-2.1-.16,0A3.46,3.46,0,0,0,456.62,136.48Z" transform="translate(-69.52 -47.36)"/><path class="cls-2" d="M467.69,147.74c0-.49-.05-1-.05-1.43V141a5.55,5.55,0,0,0-.33-2,3.92,3.92,0,0,0-.92-1.44,3.8,3.8,0,0,0-1.38-.85,4.8,4.8,0,0,0-1.67-.29,5.91,5.91,0,0,0-2.5.51,5.19,5.19,0,0,0-1.79,1.29l-.11.12,1.1,1.49.17-.19a3.85,3.85,0,0,1,1.3-1,3.92,3.92,0,0,1,1.67-.37,2.55,2.55,0,0,1,1.95.71,3.11,3.11,0,0,1,.67,2.18v.19c-.89,0-1.76,0-2.6.11a9,9,0,0,0-2.43.53,3.91,3.91,0,0,0-1.74,1.28,3.77,3.77,0,0,0-.66,2.33,3.93,3.93,0,0,0,.37,1.8,3.52,3.52,0,0,0,.93,1.2,3.48,3.48,0,0,0,1.24.67,4.3,4.3,0,0,0,1.31.2,4.1,4.1,0,0,0,3.68-1.88l0,.44q0,.53.12,1l0,.18h1.79l0-.24A11,11,0,0,1,467.69,147.74Zm-1.89-4.55v.7a5,5,0,0,1-.22,1.46,3.85,3.85,0,0,1-.62,1.21,2.92,2.92,0,0,1-1,.82,3.17,3.17,0,0,1-2.19.19,2.24,2.24,0,0,1-.73-.35,1.73,1.73,0,0,1-.51-.64,2.21,2.21,0,0,1-.19-1,1.71,1.71,0,0,1,.43-1.23,3.12,3.12,0,0,1,1.2-.73,7.56,7.56,0,0,1,1.68-.35q1-.09,1.89-.09Z" transform="translate(-69.52 -47.36)"/><path class="cls-2" d="M477.92,143.19a6.07,6.07,0,0,0-2.84-1.32,5.43,5.43,0,0,1-1.85-.73,1.33,1.33,0,0,1-.52-1.14,1.49,1.49,0,0,1,.17-.75,1.53,1.53,0,0,1,.44-.53,1.81,1.81,0,0,1,.66-.3,3.23,3.23,0,0,1,.76-.1,2.53,2.53,0,0,1,1.45.44,2.83,2.83,0,0,1,.95,1.14l.11.25,1.5-1.28-.07-.14A4,4,0,0,0,477,137a4.79,4.79,0,0,0-3.69-.37,3.84,3.84,0,0,0-1.27.66,3.16,3.16,0,0,0-.9,1.16,3.71,3.71,0,0,0-.34,1.67,3.23,3.23,0,0,0,.32,1.5,3.06,3.06,0,0,0,.79,1,3.75,3.75,0,0,0,1,.6,10.65,10.65,0,0,0,1,.32,10,10,0,0,1,2.26.87,1.36,1.36,0,0,1,.7,1.26,2,2,0,0,1-.18.9,1.89,1.89,0,0,1-.49.59,1.84,1.84,0,0,1-.71.32,4.28,4.28,0,0,1-.9.1,2.8,2.8,0,0,1-1.62-.51,3.49,3.49,0,0,1-1.13-1.26l-.11-.23-1.54,1.31.08.14a4.78,4.78,0,0,0,1.93,1.86,5.34,5.34,0,0,0,2.41.58,5.4,5.4,0,0,0,1.49-.2,3.59,3.59,0,0,0,2.31-1.9,4.23,4.23,0,0,0,.37-1.83A3.13,3.13,0,0,0,477.92,143.19Z" transform="translate(-69.52 -47.36)"/><path class="cls-3" d="M117,78.35c-5.53,0-10,9.06-10,20.24s4.48,21.47,10,21.47" transform="translate(-69.52 -47.36)"/><path class="cls-3" d="M137.82,99.38c0-5.53-9.06-10-20.23-10s-21.48,4.49-21.48,10" transform="translate(-69.52 -47.36)"/><path class="cls-3" d="M137.82,99.34c0,5.55-9.06,10.06-20.24,10.06S96.1,104.89,96.1,99.34" transform="translate(-69.52 -47.36)"/><circle class="cls-3" cx="47.47" cy="51.87" r="20.86"/><path class="cls-3" d="M116.92,78.36c5.56,0,10.06,9.06,10.06,20.23s-4.5,21.48-10.06,21.48" transform="translate(-69.52 -47.36)"/><path class="cls-2" d="M152.72,50.27H81.24A11.84,11.84,0,0,0,69.52,62.16V90.5H86.85C89.92,76.69,102.24,67.57,117,67.57S144,76.69,147.1,90.5h17.33V62.16A11.84,11.84,0,0,0,152.72,50.27Z" transform="translate(-69.52 -47.36)"/><path class="cls-1" d="M117,130.87c-15.08,0-27.62-9.59-30.32-23.88H69.52v29.29a11.84,11.84,0,0,0,11.72,11.89h71.48a11.84,11.84,0,0,0,11.71-11.89V107H147.3C144.59,121.28,132.05,130.87,117,130.87Z" transform="translate(-69.52 -47.36)"/></svg>